<svg xmlns="http://www.w3.org/2000/svg" viewBox="0 0 300 485.41"><defs><style>.cls-1{fill:#47a2da;}</style></defs><title>Logo</title><g id="Layer_2" data-name="Layer 2"><g id="Layer_2-2" data-name="Layer 2"><path class="cls-1" d="M300,355.17c0,71.93-67.15,130.24-150,130.24S0,427.1,0,355.17V139.9H.41c-.27-3.18-.41-6.41-.41-9.66C0,58.31,67.16,0,150,0S300,58.31,300,130.24c0,48-29.86,89.87-74.31,112.47C270.14,265.3,300,307.21,300,355.17ZM177.36,65.24H122.24V195.83h55.12ZM95.44,355c0,36,24.43,65.16,54.56,65.16S204.56,391,204.56,355,180.13,289.85,150,289.85,95.44,319,95.44,355ZM150,325.69c13.61,0,24.64,13.17,24.64,29.42s-11,29.43-24.64,29.43-24.64-13.18-24.64-29.43S136.39,325.69,150,325.69Z"/></g></g></svg>